<?xml version="1.0" encoding="utf-8"?>
<!-- Generator: Adobe Illustrator 16.0.0, SVG Export Plug-In . SVG Version: 6.00 Build 0)  -->
<!DOCTYPE svg PUBLIC "-//W3C//DTD SVG 1.1//EN" "http://www.w3.org/Graphics/SVG/1.1/DTD/svg11.dtd">
<svg version="1.1" id="Layer_1" xmlns="http://www.w3.org/2000/svg" xmlns:xlink="http://www.w3.org/1999/xlink" x="0px" y="0px"
	 width="338.939px" height="96.46px" viewBox="0 0 338.939 96.46" enable-background="new 0 0 338.939 96.46" xml:space="preserve">
<g>
	<path fill="#191919" d="M56.061,82.045c0,0.078-0.01,0.17-0.03,0.268c-0.021,0.1-0.029,0.189-0.029,0.268
		c-0.039,0.91-0.247,1.752-0.624,2.527c-0.376,0.773-0.871,1.445-1.486,2.021c-0.615,0.572-1.316,1.029-2.109,1.365
		S50.137,89,49.227,89c-0.951,0-1.834-0.178-2.646-0.535c-0.813-0.355-1.526-0.842-2.141-1.457c-0.615-0.613-1.1-1.324-1.456-2.141
		c-0.357-0.811-0.535-1.693-0.535-2.645c0-0.355,0.02-0.633,0.059-0.83V56.665c0-5.742-0.792-9.707-2.376-11.884
		c-1.626-2.26-4.458-3.389-8.501-3.389c-4.517,0-7.687,1.486-9.51,4.455c-1.861,2.895-2.793,7.966-2.793,15.216v19.498
		c0.079,0.275,0.118,0.523,0.118,0.742s0,0.484,0,0.801c0,0.951-0.179,1.855-0.534,2.707c-0.357,0.852-0.832,1.594-1.428,2.229
		c-0.594,0.635-1.307,1.139-2.139,1.514c-0.833,0.379-1.723,0.566-2.674,0.566s-1.854-0.178-2.706-0.535s-1.596-0.852-2.229-1.486
		c-0.635-0.635-1.13-1.367-1.486-2.199s-0.534-1.725-0.534-2.676c0-0.436,0.02-0.75,0.059-0.951V37.765
		c0-0.951,0.179-1.844,0.535-2.676s0.853-1.564,1.486-2.199c0.633-0.633,1.367-1.127,2.199-1.484
		c0.832-0.355,1.725-0.535,2.676-0.535c0.791,0,1.555,0.139,2.287,0.416s1.397,0.654,1.99,1.131
		c0.596,0.473,1.102,1.049,1.518,1.721c0.416,0.676,0.702,1.389,0.861,2.141c4.715-4.676,10.045-7.014,15.989-7.014
		c6.774,0,12.044,2.141,15.811,6.42c3.288,3.566,4.933,9.471,4.933,17.712V82.045z"/>
	<path fill="#191919" d="M114.426,38.062v26.332c0,4.557-0.576,8.559-1.725,12.006c-1.109,3.012-3.031,5.725-5.766,8.143
		c-4.518,3.924-10.263,5.887-17.236,5.887c-6.936,0-12.66-1.963-17.179-5.887c-1.387-1.227-2.575-2.516-3.566-3.863
		c-0.99-1.346-1.763-2.773-2.317-4.279c-1.11-2.693-1.664-6.695-1.664-12.006V37.587v-0.061c0-0.91,0.178-1.773,0.535-2.584
		c0.355-0.811,0.831-1.516,1.425-2.109c0.596-0.598,1.298-1.07,2.111-1.428c0.812-0.355,1.692-0.535,2.644-0.535
		c0.913,0,1.773,0.18,2.587,0.535c0.812,0.357,1.516,0.83,2.11,1.428c0.594,0.594,1.07,1.299,1.426,2.109
		c0.356,0.811,0.534,1.674,0.534,2.584v0.061v26.449c0,9.629,3.784,14.445,11.354,14.445c7.567,0,11.352-4.816,11.352-14.445V37.587
		c0-0.912,0.18-1.771,0.535-2.586c0.357-0.812,0.832-1.525,1.428-2.141c0.593-0.613,1.297-1.098,2.109-1.455
		c0.811-0.355,1.674-0.535,2.586-0.535c0.951,0,1.832,0.18,2.645,0.535c0.812,0.357,1.516,0.842,2.109,1.455
		c0.596,0.615,1.069,1.328,1.427,2.141c0.358,0.814,0.536,1.674,0.536,2.586V38.062z"/>
	<path fill="#C13736" d="M69.015,12.503c0-2.297,0.831-4.258,2.495-5.883c1.664-1.666,3.665-2.498,6.003-2.498
		c2.339,0,4.34,0.832,6.005,2.498c1.664,1.625,2.496,3.605,2.496,5.941c0,2.379-0.832,4.4-2.496,6.063
		c-1.744,1.626-3.744,2.437-6.005,2.437c-2.376,0-4.397-0.831-6.061-2.494C69.827,16.821,69.015,14.801,69.015,12.503z"/>
	<path fill="#C13736" d="M93.86,12.503c0-2.297,0.833-4.258,2.496-5.883c1.703-1.666,3.705-2.498,6.004-2.498
		c2.379,0,4.378,0.832,6.002,2.498c1.665,1.625,2.498,3.605,2.498,5.941c0,2.379-0.833,4.4-2.498,6.063
		c-1.744,1.626-3.743,2.437-6.002,2.437c-2.339,0-4.34-0.831-6.004-2.494C94.693,16.9,93.86,14.882,93.86,12.503z"/>
	<path fill="#C13736" d="M187.663,33.032c0.942,0,1.815,0.176,2.622,0.531c0.807,0.352,1.504,0.834,2.095,1.441
		c0.588,0.611,1.06,1.32,1.415,2.123c0.353,0.807,0.53,1.662,0.53,2.566v0.176v43.869c-0.04,0.039-0.059,0.098-0.059,0.176
		c0,0.906-0.178,1.75-0.533,2.537c-0.353,0.785-0.823,1.473-1.415,2.064c-0.588,0.588-1.285,1.059-2.092,1.414
		c-0.806,0.354-1.661,0.531-2.563,0.531c-0.906,0-1.76-0.178-2.567-0.531c-0.807-0.355-1.504-0.826-2.092-1.414
		c-0.591-0.592-1.062-1.289-1.415-2.096c-0.354-0.803-0.53-1.658-0.53-2.562v-0.709V39.87v-0.176c0-0.904,0.176-1.76,0.53-2.566
		c0.353-0.803,0.824-1.512,1.415-2.123c0.588-0.607,1.285-1.09,2.092-1.441C185.903,33.208,186.756,33.032,187.663,33.032z"/>
	<path fill="#C13736" d="M248.094,32.972c0.942,0,1.817,0.178,2.624,0.531s1.504,0.826,2.092,1.416
		c0.592,0.59,1.062,1.287,1.415,2.094c0.355,0.805,0.533,1.68,0.533,2.623c0,1.258-0.296,2.357-0.886,3.301l-21.64,44.458
		l-0.059-0.059c-0.393,0.865-0.806,1.65-1.236,2.359c-0.355,0.588-0.719,1.119-1.091,1.59c-0.376,0.473-0.719,0.709-1.033,0.709
		c-0.197,0-0.413-0.119-0.648-0.354c-0.235-0.238-0.482-0.531-0.738-0.887c-0.256-0.352-0.51-0.734-0.766-1.148
		c-0.257-0.414-0.461-0.797-0.619-1.15L203.99,42.761c-0.551-0.982-0.825-2.045-0.825-3.186c0-0.902,0.179-1.758,0.531-2.562
		c0.354-0.807,0.834-1.504,1.445-2.094c0.608-0.59,1.315-1.062,2.122-1.416c0.804-0.354,1.68-0.531,2.622-0.531
		c1.337,0,2.546,0.365,3.627,1.092c1.08,0.727,1.877,1.68,2.389,2.859l0.059,0.059l12.323,26.591
		c0.078,0.199,0.188,0.385,0.324,0.561c0.137,0.178,0.266,0.266,0.383,0.266c0.157,0,0.354-0.215,0.591-0.648
		c0.116-0.156,0.236-0.373,0.353-0.648v0.059l12.028-26.179c0.512-1.18,1.318-2.143,2.42-2.889
		C245.479,33.347,246.719,32.972,248.094,32.972z"/>
	<path fill="#C13736" d="M270.614,33.032c0.943,0,1.818,0.176,2.624,0.531c0.807,0.352,1.504,0.834,2.093,1.441
		c0.591,0.611,1.062,1.32,1.415,2.123c0.355,0.807,0.533,1.662,0.533,2.566v0.176v43.869c-0.041,0.039-0.061,0.098-0.061,0.176
		c0,0.906-0.176,1.75-0.531,2.537c-0.353,0.785-0.824,1.473-1.414,2.064c-0.59,0.588-1.288,1.059-2.094,1.414
		c-0.806,0.354-1.66,0.531-2.565,0.531c-0.903,0-1.758-0.178-2.564-0.531c-0.806-0.355-1.504-0.826-2.092-1.414
		c-0.591-0.592-1.062-1.289-1.415-2.096c-0.354-0.803-0.532-1.658-0.532-2.562v-0.709V39.87v-0.176c0-0.904,0.178-1.76,0.532-2.566
		c0.353-0.803,0.824-1.512,1.415-2.123c0.588-0.607,1.286-1.09,2.092-1.441C268.856,33.208,269.71,33.032,270.614,33.032z"/>
	<path fill="#C13736" d="M327.332,77.903c0.865,0,1.67,0.168,2.418,0.498c0.745,0.336,1.395,0.789,1.945,1.357
		c0.55,0.57,0.983,1.23,1.298,1.977s0.472,1.553,0.472,2.416c0,1.377-0.403,2.594-1.21,3.656c-0.806,1.061-1.838,1.789-3.093,2.182
		c-3.973,1.533-7.902,2.301-11.794,2.301c-8.924,0-16.413-2.891-22.467-8.668c-6.013-5.818-9.021-13.01-9.021-21.58
		s3.047-15.822,9.141-21.759c6.053-5.934,13.521-8.902,22.405-8.902c4.089,0,8.019,0.709,11.793,2.123
		c1.217,0.434,2.229,1.18,3.035,2.24c0.807,1.062,1.21,2.301,1.21,3.717c0,0.863-0.167,1.678-0.502,2.447
		c-0.335,0.766-0.776,1.434-1.326,2.002c-0.55,0.572-1.21,1.023-1.976,1.357c-0.767,0.336-1.582,0.5-2.447,0.5
		c-1.022,0-2.004-0.254-2.947-0.766c-2.163-1.023-4.579-1.533-7.253-1.533c-5.031,0-9.198,1.711-12.501,5.131
		c-3.302,3.535-4.952,7.958-4.952,13.265c0,5.463,1.592,9.906,4.775,13.324c3.302,3.422,7.448,5.131,12.442,5.131
		c2.949,0,5.581-0.609,7.902-1.828C325.542,78.098,326.427,77.903,327.332,77.903z"/>
	<path fill="#C13736" d="M164.356,77.903c0.866,0,1.671,0.168,2.417,0.498c0.748,0.336,1.397,0.789,1.947,1.357
		c0.551,0.57,0.982,1.23,1.296,1.977c0.314,0.746,0.472,1.553,0.472,2.416c0,1.377-0.403,2.594-1.207,3.656
		c-0.807,1.061-1.839,1.789-3.096,2.182c-3.971,1.533-7.902,2.301-11.793,2.301c-8.924,0-16.412-2.891-22.465-8.668
		c-6.015-5.818-9.021-13.01-9.021-21.58s3.045-15.822,9.138-21.759c6.054-5.934,13.522-8.902,22.406-8.902
		c4.089,0,8.02,0.709,11.792,2.123c1.221,0.434,2.231,1.18,3.038,2.24c0.804,1.062,1.207,2.301,1.207,3.717
		c0,0.863-0.167,1.678-0.5,2.447c-0.334,0.766-0.778,1.434-1.328,2.002c-0.55,0.572-1.207,1.023-1.974,1.357
		c-0.768,0.336-1.582,0.5-2.447,0.5c-1.022,0-2.005-0.254-2.948-0.766c-2.162-1.023-4.58-1.533-7.253-1.533
		c-5.031,0-9.198,1.711-12.501,5.131c-3.302,3.535-4.952,7.958-4.952,13.265c0,5.463,1.593,9.906,4.776,13.324
		c3.302,3.422,7.449,5.131,12.441,5.131c2.949,0,5.581-0.609,7.902-1.828C162.568,78.098,163.453,77.903,164.356,77.903z"/>
</g>
</svg>
